<svg version="1.1" id="Layer_1" xmlns="http://www.w3.org/2000/svg" xmlns:xlink="http://www.w3.org/1999/xlink" x="0px" y="0px"
	 width="100%" viewBox="0 0 240 208" enable-background="new 0 0 240 208" xml:space="preserve">
<path fill="#000000" opacity="1.000000" stroke="none" 
	d="
M199.223999,158.700562 
	C206.593994,164.458405 213.784897,169.867676 220.679764,175.631119 
	C224.497986,178.822784 224.820557,182.897339 222.261780,186.267975 
	C219.596039,189.779526 215.506866,190.202347 211.200043,187.374664 
	C210.088455,186.644852 209.018021,185.846649 207.968796,185.028412 
	C194.833130,174.784744 181.688766,164.552094 168.577591,154.277161 
	C122.429749,118.112221 76.293198,81.932877 30.157803,45.752060 
	C28.979204,44.827770 27.779686,43.905643 26.733810,42.841141 
	C23.401093,39.449059 22.916506,35.125217 25.832727,32.112087 
	C28.892052,28.951101 32.730553,28.583525 36.262886,31.107672 
	C42.221466,35.365570 47.921654,39.984585 53.741688,44.437115 
	C55.577702,45.841728 57.182384,47.605511 59.765972,48.365402 
	C62.779354,44.722870 62.316448,39.977520 63.449326,35.787678 
	C64.360085,32.419312 65.356300,29.499378 69.398376,29.793859 
	C73.633385,30.102400 74.052422,33.525703 74.105827,36.795746 
	C74.206512,42.960560 74.444519,49.147964 74.047112,55.288548 
	C73.704033,60.589661 76.442680,63.112900 81.249863,65.250046 
	C82.079498,56.103985 82.873047,47.380913 83.659889,38.657234 
	C83.794388,37.166035 83.749573,35.640957 84.051804,34.186424 
	C84.612556,31.487690 86.048851,29.664768 89.145973,29.712152 
	C92.037903,29.756399 93.455795,31.524597 93.807976,34.020241 
	C94.457512,38.623062 94.862076,43.263756 95.260849,47.897949 
	C96.001526,56.505386 96.664734,65.119492 97.360092,73.730827 
	C97.400299,74.228767 97.360657,74.748947 97.493111,75.220909 
	C98.054901,77.222603 98.905510,79.342613 101.315842,79.119019 
	C103.634163,78.903946 103.744576,76.674599 103.746742,74.813591 
	C103.759171,64.148605 103.721611,53.483582 103.717148,42.818558 
	C103.716103,40.320339 103.529037,37.786911 103.876678,35.333313 
	C104.258392,32.639244 105.241844,29.977045 108.598816,29.763590 
	C112.113998,29.540077 113.587799,31.819597 114.267090,34.888577 
	C116.565735,45.273659 118.879845,55.655315 121.187958,66.038300 
	C123.321327,75.635239 125.879593,85.228470 120.776649,94.737457 
	C120.012230,96.161903 120.818825,97.292068 121.957108,98.185577 
	C128.752045,103.519386 135.548706,108.851006 142.350098,114.187531 
	C144.393066,112.489044 143.588135,110.534683 143.616501,108.856438 
	C143.838257,95.733162 143.473328,82.632118 145.535385,69.543945 
	C148.358536,51.624763 162.679031,34.926579 180.371368,30.113489 
	C188.698929,27.848030 194.054001,32.156643 194.102051,41.453133 
	C194.195923,59.618694 194.136719,77.785065 194.133957,95.951103 
	C194.131302,113.450493 194.246231,130.951477 194.024460,148.448151 
	C193.968292,152.880310 195.048386,156.235779 199.223999,158.700562 
z"/>
<path fill="#000000" opacity="1.000000" stroke="none" 
	d="
M99.122803,167.988022 
	C99.104790,171.981583 99.268066,175.490280 99.029808,178.971497 
	C98.592125,185.366577 94.837273,189.130173 89.050606,189.305313 
	C83.265541,189.480377 80.065262,186.540146 78.988876,179.911316 
	C78.751030,178.446564 78.811516,176.925995 78.811348,175.431137 
	C78.809128,154.952759 78.692841,134.472900 78.931831,113.997231 
	C78.981926,109.705521 76.361740,109.237793 73.492943,108.304565 
	C61.646820,104.450951 54.753967,95.821693 54.671753,84.158257 
	C58.922440,86.306854 62.027271,89.474854 65.464485,92.129265 
	C75.210617,99.655746 84.859268,107.309586 94.662964,114.759773 
	C97.846710,117.179222 99.289154,119.901649 99.222725,124.035789 
	C98.989983,138.517563 99.126640,153.005295 99.122803,167.988022 
z"/>
</svg>